<svg width="428" height="500" viewBox="0 0 428 500" fill="none" xmlns="http://www.w3.org/2000/svg">
<path d="M124.768 404.957H232.042C260.305 380.307 295.947 363.895 335.2 359.473V276.393C246.198 283.323 169.23 333.027 124.768 404.957Z" fill="#E4E5F4"/>
<path d="M143.552 189.857C143.9 190.277 144.455 190.82 145.352 191.535C145.352 191.535 145.348 191.527 145.34 191.515C145.773 191.888 146.253 192.248 146.748 192.582C147.605 193.16 148.262 193.533 148.74 193.775C148.743 193.775 148.745 193.777 148.745 193.778C149.452 194.13 149.768 194.192 149.768 194.192C149.768 194.192 157.232 211.455 158.255 212.733C159.643 213.04 164.258 208.077 164.258 208.077C163.408 206.808 154.903 191.697 154.577 189.728C154.197 187.432 156.073 182.347 154.322 182.62C152.567 182.892 152.472 186.622 152.472 186.622C152.472 186.622 152.45 186.58 152.405 186.507C152.14 186.055 151.098 184.372 149.673 183.223L149.672 183.222C149.273 182.905 148.848 182.627 148.4 182.43C148.32 182.397 148.242 182.363 148.162 182.332C148.018 182.278 147.873 182.233 147.725 182.2C147.702 182.193 147.675 182.188 147.652 182.183C147.578 182.167 147.503 182.153 147.428 182.142L147.42 182.14C147.418 182.142 147.418 182.142 147.417 182.143C147.213 182.172 146.98 182.268 146.73 182.492C145.923 183.215 146.388 183.938 146.388 183.938C146.388 183.938 145.615 183.598 145.053 184.282C144.455 185.007 145.018 185.428 145.018 185.428C145.018 185.428 144.11 185.338 143.662 185.928C143.187 186.55 143.848 187.027 143.848 187.027C143.848 187.027 143.215 186.87 142.652 187.592C142.145 188.24 143.552 189.857 143.552 189.857Z" fill="#EFD9D3"/>
<path opacity="0.1" d="M149.902 193.71C150.723 193.773 151.788 192.967 152.687 192.133C153.368 191.498 153.675 190.632 153.808 189.89C153.842 190.057 153.87 190.227 153.887 190.4C153.928 190.85 154.208 192.795 153.252 193.537C151.755 194.695 150.36 193.712 149.953 193.768C149.937 193.748 149.918 193.728 149.902 193.71ZM145.333 190.333C145.715 190.445 147.417 192.638 149.777 190.15C151.09 188.767 152.278 188.42 152.405 186.505C152.14 186.053 151.098 184.37 149.673 183.222L149.672 183.22C149.113 183.392 148.648 183.477 148.427 183.367C147.587 182.943 149.33 184.722 148.763 186.222C148.352 187.312 146.432 189.183 145.783 189.438C145.348 189.61 143.432 188.742 143.432 188.742C143.432 188.742 142.872 189.612 145.333 190.333Z" fill="#231F20"/>
<path d="M355.728 130.442C351.845 130.442 348.205 131.477 345.06 133.278C342.38 131.618 339.232 130.645 335.848 130.645C330.01 130.645 324.852 133.508 321.662 137.895C321.032 137.64 320.343 137.497 319.622 137.497C316.613 137.497 314.173 139.935 314.173 142.945C314.173 143.463 314.25 143.962 314.385 144.437C308.388 145.393 303.8 150.573 303.8 156.84C303.8 163.785 309.43 169.415 316.375 169.415C320.92 169.415 324.89 166.997 327.098 163.383C327.107 163.388 327.113 163.393 327.122 163.398C326.88 164.135 326.743 164.918 326.743 165.735C326.743 169.868 330.093 173.218 334.227 173.218C337.588 173.218 340.432 171.002 341.375 167.95C345.182 171.365 350.21 173.445 355.727 173.445C367.602 173.445 377.227 163.818 377.227 151.945C377.227 140.072 367.603 130.442 355.728 130.442Z" fill="#EFF0F9"/>
<path opacity="0.85" d="M368.887 134.945C368.632 135.188 368.398 135.453 368.205 135.755C367.338 137.115 367.468 138.768 367.985 140.227C368.553 141.832 369.337 143.385 370.028 144.942C371.475 148.198 373.137 151.965 372.682 155.62C372.377 158.072 370.898 160.053 368.688 161.132C366.407 162.243 363.717 162.425 361.228 162.153C358.792 161.887 356.598 160.627 354.278 159.923C353.2 159.597 352.002 159.318 350.88 159.58C349.735 159.847 349.023 160.8 348.658 161.868C348.322 162.853 348.488 163.923 348.503 164.94C348.517 165.763 348.4 166.66 347.668 167.163C346.697 167.833 345.185 167.672 344.118 167.362C342.755 166.967 341.568 166.13 340.207 165.73C339.558 165.54 338.865 165.497 338.23 165.76C337.515 166.057 337.112 166.558 336.823 167.255C336.587 167.823 336.393 168.422 335.992 168.9C335.557 169.417 334.948 169.715 334.288 169.827C331.59 170.287 329.07 168.42 328.058 166.032C327.673 165.123 327.425 164.168 327.09 163.242C326.905 162.727 326.63 161.787 326.002 161.643C325.115 161.442 324.035 162.622 323.497 163.145C322.41 164.202 321.407 165.3 320.167 166.187C317.91 167.802 315.305 168.585 312.547 168.705C312.452 168.708 312.357 168.708 312.262 168.712C313.553 169.16 314.933 169.415 316.378 169.415C320.923 169.415 324.893 166.997 327.102 163.383C327.11 163.388 327.117 163.393 327.125 163.398C326.883 164.135 326.747 164.918 326.747 165.735C326.747 169.868 330.097 173.218 334.23 173.218C337.592 173.218 340.435 171.002 341.378 167.95C345.185 171.365 350.213 173.445 355.73 173.445C367.605 173.445 377.23 163.818 377.23 151.945C377.23 145.027 373.96 138.877 368.887 134.945ZM307.698 161.912C306.668 160.56 306.212 158.777 306.227 157.04C306.237 155.292 306.673 153.543 307.482 151.98C308.283 150.418 309.475 149.017 310.997 148.078C312.495 147.132 314.418 146.753 316.032 147.31C314.345 147.483 312.925 148.183 311.768 149.165C310.61 150.15 309.705 151.408 308.998 152.763C307.607 155.495 306.957 158.643 307.698 161.912ZM324.108 138.758C324.912 137.098 326.36 135.773 327.952 134.808C329.552 133.825 331.343 133.193 333.175 132.822C335.013 132.49 336.91 132.412 338.76 132.727C340.595 133.028 342.433 133.713 343.803 134.948C342.078 134.34 340.357 134.103 338.63 134.053C336.907 134.023 335.183 134.165 333.495 134.497C331.803 134.808 330.15 135.317 328.563 135.985C326.98 136.673 325.473 137.54 324.108 138.758Z" fill="#E4E5F4"/>
<path d="M107.65 119.625C107.38 119.625 107.11 119.633 106.84 119.642C105.997 115.755 102.553 112.843 98.4133 112.843C96.5233 112.843 94.78 113.465 93.3567 114.488C90.33 111.518 86.1817 109.685 81.6 109.685C76.0033 109.685 71.0533 112.427 68.0017 116.632C67.3967 116.387 66.7333 116.247 66.0467 116.247C63.1583 116.247 60.8183 118.587 60.8183 121.467C60.8183 121.965 60.8917 122.448 61.0233 122.898C55.28 123.815 50.8783 128.782 50.8783 134.787C50.8783 135.76 50.485 137.03 51.2133 137.602C66.3367 149.462 116.803 153.158 128.088 137.602C134.093 129.322 118.14 119.625 107.65 119.625Z" fill="#EFF0F9"/>
<path d="M70.08 117.752C70.5233 116.448 71.4467 115.332 72.4917 114.433C73.545 113.53 74.7516 112.812 76.0383 112.295C77.3216 111.775 78.695 111.46 80.085 111.397C81.4667 111.333 82.9016 111.53 84.115 112.178C82.75 112.2 81.4916 112.382 80.2517 112.662C79.015 112.943 77.8167 113.347 76.645 113.812C75.4767 114.285 74.3317 114.823 73.2333 115.463C72.1367 116.113 71.0883 116.832 70.08 117.752ZM53.2 132.298C53.0717 131.175 53.565 130.05 54.1517 129.125C54.755 128.185 55.5067 127.357 56.3533 126.657C57.2 125.953 58.1433 125.368 59.16 124.93C60.1633 124.507 61.3167 124.183 62.4217 124.41C61.42 124.865 60.6167 125.455 59.785 126.045C58.9667 126.643 58.18 127.278 57.3983 127.915C56.6233 128.56 55.8633 129.22 55.1433 129.922C54.435 130.637 53.7433 131.338 53.2 132.298ZM113.01 120.33C113.047 120.372 113.083 120.415 113.12 120.455C114.342 121.778 115.908 122.72 117.14 124.043C118.293 125.282 119.313 126.687 120.053 128.213C119.113 128.352 118.253 128.79 117.662 129.555C116.362 131.232 116.822 133.762 118.662 135.292C116.455 136.323 113.197 135.967 111.208 135.395C108.808 134.705 106.55 133.567 104.107 133.02C101.827 132.51 98.8483 132.483 97.0283 134.183C95.71 135.413 95.3783 137.343 94.1216 138.64C92.4966 140.32 89.955 140.093 87.8516 139.637C85.6066 139.15 83.3483 138.333 81.7983 136.562C80.2766 134.822 79.31 132.467 76.9817 131.655C74.85 130.912 72.3416 131.28 70.3183 132.187C69.29 132.648 68.4016 133.285 67.6417 134.12C66.975 134.852 66.4467 135.697 65.7867 136.433C64.3583 138.027 62.34 138.42 60.275 138.338C58.23 138.258 56.2017 137.73 54.3083 136.972C53.1217 136.497 51.965 135.912 50.8517 135.25C50.78 136.132 50.5933 137.113 51.21 137.598C66.3333 149.458 116.8 153.155 128.085 137.598C133.128 130.65 122.695 122.703 113.01 120.33Z" fill="#E4E5F4"/>
<path d="M73.135 143.273C73.615 146.902 76.5467 148.225 80.045 149.823C80.3267 149.943 80.6267 150.078 80.895 150.217C84.48 151.887 88.3367 153.933 90.1833 158.953C93.98 169.08 102.222 177.377 112.262 181.132C119.64 183.908 131.393 185.567 146.12 178.355C146.873 177.987 147.657 177.585 148.423 177.168C153.13 174.643 156.955 170.397 160.998 165.892C172.235 153.367 184.983 139.192 222.997 150.213C233.472 153.243 247.815 138.022 253.63 131.142L254.492 131.87C247.715 139.888 233.59 154.467 222.702 151.293C185.362 140.455 172.863 154.368 161.845 166.635C157.712 171.212 153.845 175.54 148.97 178.16C148.633 178.348 148.312 178.52 147.99 178.69C132.253 186.85 119.677 185.118 111.852 182.17C107.767 180.638 103.955 178.363 100.608 175.535C95.5217 171.235 91.48 165.632 89.1417 159.34C87.2883 154.433 83.5 152.62 79.785 150.928C79.7183 150.902 79.6517 150.875 79.5867 150.848C76.29 149.363 73.1233 147.898 72.2033 144.372L73.135 143.273ZM366.45 136.088C364.782 132.83 361.577 132.565 357.745 132.232C357.438 132.213 357.11 132.187 356.812 132.147C352.875 131.773 348.555 131.137 345.133 127.027C338.163 118.757 327.618 113.702 316.9 113.527C309.018 113.382 297.387 115.758 285.928 127.487C285.342 128.087 284.738 128.727 284.155 129.377C281.518 132.283 279.643 135.91 277.92 139.848C277.582 139.687 277.243 139.527 276.907 139.365C278.665 135.348 280.572 131.64 283.305 128.623C283.558 128.333 283.805 128.063 284.052 127.795C296.145 114.833 308.575 112.252 316.935 112.408C321.298 112.483 325.652 113.35 329.75 114.893C335.983 117.24 341.67 121.167 345.98 126.312C349.37 130.313 353.548 130.753 357.613 131.102C357.685 131.105 357.757 131.107 357.828 131.11C361.432 131.405 364.907 131.725 366.955 134.74L366.45 136.088Z" fill="#EFF0F9"/>
<path d="M257.017 206.26L273.15 186.817L279.607 190.537L263.657 211.682L257.017 206.26Z" fill="#EFD9D3"/>
<path d="M267.527 429.665C267.527 429.665 260.608 424.21 260.955 423.103C261.3 421.997 262.842 420.073 263.59 420.003C264.34 419.933 271.33 425.095 271.42 426.49C271.51 427.885 269.325 430.61 267.527 429.665Z" fill="#EFD9D3"/>
<path d="M261.467 440.955L261.027 441.597C261.027 441.597 261.517 442.453 262.063 442.507C262.61 442.56 265.585 440.977 269.793 436.362C274.002 431.747 275.235 428.957 274.343 428.283C273.45 427.612 265.195 440.823 261.467 440.955Z" fill="#367CFF"/>
<path d="M274.343 428.285C270.575 436.132 260.488 443.642 260.952 441.245C261.055 440.718 261.418 439.978 261.907 439.127C263.647 436.1 266.983 431.657 265.857 430.367C264.415 428.713 264.987 427.662 265.228 427.525C265.29 427.492 265.472 427.41 265.708 427.285C266.403 426.922 267.592 426.193 267.758 425.198C267.983 423.863 268.033 423.683 268.735 423.678C270.792 423.663 271.66 424.555 274.343 428.285Z" fill="#0038FF"/>
<path d="M265.708 427.285C265.998 427.72 266.26 428.285 266.42 428.805C266.817 430.108 267.915 429.933 268.075 432.833C268.237 435.733 264.06 438.497 262.742 439.193C261.965 439.602 261.86 439.38 261.907 439.127C263.647 436.1 266.983 431.657 265.857 430.367C264.415 428.713 264.987 427.662 265.228 427.525C265.29 427.492 265.47 427.41 265.708 427.285ZM234.018 317.83C234.018 317.83 241.445 385.305 267.777 420.078L261.535 426.99C261.535 426.99 205.478 379.75 192.192 313.162L234.018 317.83Z" fill="#367CFF"/>
<path d="M311.263 384.483C311.263 384.483 302.572 383.047 302.34 381.91C302.108 380.773 302.53 378.347 303.152 377.923C303.773 377.5 312.388 378.645 313.14 379.823C313.893 381 313.295 384.442 311.263 384.483Z" fill="#EFD9D3"/>
<path d="M311.408 397.295L311.333 398.07C311.333 398.07 312.175 398.583 312.68 398.367C313.185 398.15 315.025 395.327 316.482 389.253C317.938 383.18 317.672 380.142 316.565 379.983C315.46 379.825 314.61 395.38 311.408 397.295Z" fill="#367CFF"/>
<path d="M316.567 379.983C317.055 388.673 311.848 400.122 311.097 397.8C310.932 397.288 310.893 396.467 310.91 395.483C310.973 391.993 311.748 386.492 310.14 385.905C308.08 385.153 308.072 383.955 308.218 383.72C308.257 383.66 308.375 383.502 308.523 383.278C308.957 382.625 309.645 381.413 309.31 380.462C308.862 379.183 308.82 379.003 309.432 378.658C311.227 377.652 312.417 378.013 316.567 379.983Z" fill="#0038FF"/>
<path d="M308.522 383.278C308.987 383.52 309.488 383.887 309.878 384.265C310.855 385.215 311.732 384.532 313.273 386.993C314.815 389.455 312.492 393.892 311.673 395.137C311.19 395.868 310.992 395.725 310.91 395.482C310.973 391.992 311.748 386.49 310.14 385.903C308.08 385.152 308.072 383.953 308.218 383.718C308.255 383.66 308.375 383.502 308.522 383.278Z" fill="#367CFF"/>
<path d="M234.242 288.697C234.242 288.697 249.928 351.118 307.875 376.733L304.993 384.685C304.993 384.685 222.455 377.693 204.352 308.453L234.242 288.697Z" fill="#0038FF"/>
<path d="M267.345 209.382L258.942 200.738C258.942 200.738 238.258 230.905 210.282 227.708C182.303 224.512 160.392 202.205 160.392 202.205L154.968 204.368C154.968 204.368 164.18 239.317 186.757 249.382C186.757 249.382 175.705 285.417 190.272 317.432C193.238 323.95 251.325 295.177 243.255 289.05C222.445 273.252 225.96 250.077 225.96 250.077C225.96 250.077 253.527 243.653 267.345 209.382Z" fill="#B8BDF4"/>
<path d="M150.377 185.813C150.377 185.813 162.512 162.487 178.755 152.8C194.998 143.113 234.912 122.045 276.848 180.457C276.848 180.457 279.077 108.927 195.858 119.732C147.047 126.07 150.377 185.813 150.377 185.813Z" fill="#0038FF"/>
<path d="M287.395 185.107L287.393 185.105C286.96 185.632 286.263 186.313 285.14 187.21C285.14 187.21 285.145 187.2 285.155 187.185C284.612 187.653 284.012 188.103 283.39 188.52C282.318 189.245 281.493 189.713 280.893 190.013C280.89 190.013 280.888 190.017 280.887 190.018C280.002 190.46 279.605 190.537 279.605 190.537C279.605 190.537 277.788 192.533 276.507 194.133C274.768 194.518 271.4 190.2 271.4 190.2C272.465 188.612 273.173 187.412 273.582 184.945C274.058 182.068 271.707 175.697 273.902 176.04C276.1 176.382 276.218 181.052 276.218 181.052C276.218 181.052 276.245 181 276.302 180.907C276.633 180.34 277.938 178.232 279.723 176.793L279.725 176.792C280.223 176.395 280.757 176.047 281.318 175.798C281.418 175.757 281.517 175.713 281.617 175.675C281.795 175.608 281.978 175.552 282.165 175.51C282.193 175.503 282.227 175.495 282.258 175.49C282.352 175.468 282.445 175.452 282.538 175.438L282.55 175.437C282.552 175.438 282.552 175.438 282.553 175.44C282.808 175.475 283.1 175.597 283.413 175.877C284.423 176.783 283.842 177.688 283.842 177.688C283.842 177.688 284.812 177.263 285.513 178.12C286.262 179.028 285.558 179.557 285.558 179.557C285.558 179.557 286.695 179.445 287.258 180.182C287.852 180.96 287.025 181.558 287.025 181.558C287.025 181.558 287.82 181.362 288.525 182.267C289.158 183.082 287.395 185.107 287.395 185.107Z" fill="#EFD9D3"/>
<path opacity="0.1" d="M279.44 189.933C278.41 190.012 277.075 189.002 275.952 187.957C275.097 187.162 274.713 186.075 274.547 185.145C274.505 185.355 274.468 185.567 274.448 185.783C274.397 186.348 274.045 188.785 275.243 189.713C277.117 191.165 278.865 189.932 279.375 190.003C279.398 189.98 279.418 189.957 279.44 189.933ZM285.163 185.702C284.685 185.842 282.553 188.588 279.597 185.473C277.952 183.74 276.463 183.307 276.303 180.908C276.635 180.342 277.94 178.233 279.725 176.795L279.727 176.793C280.427 177.008 281.01 177.113 281.287 176.977C282.338 176.445 280.155 178.675 280.865 180.555C281.38 181.92 283.787 184.265 284.598 184.585C285.143 184.8 287.543 183.712 287.543 183.712C287.543 183.712 288.247 184.798 285.163 185.702Z" fill="#231F20"/>
<path d="M150.042 187.897C150.042 187.897 155.602 139.187 207.732 127.467C259.862 115.748 267.275 181.953 289.843 194.705C289.843 194.705 284.295 188.777 284.097 179.258C283.9 169.74 327.702 65.9433 241.642 58.0467C158.642 50.43 125.013 122.64 146.66 183.787C146.66 183.787 147.358 198.41 141.433 199.65C141.437 199.65 148.99 203.718 150.042 187.897Z" fill="#367CFF"/>
<path opacity="0.5" d="M178.25 111.21L184.077 124.178L179.368 127.473L174.305 122.122L177.025 128.407L172.362 131.768L162.697 121.61L166.62 118.452L172.128 124.868L168.588 117.135L171.867 114.942L177.902 121.127L173.852 113.613L178.25 111.21ZM191.433 105.43C191.63 106.033 191.827 106.63 192.023 107.22C192.222 107.808 192.412 108.408 192.597 109.017L188.692 110.807L189.068 112.028L191.87 110.915L192.82 113.912L190.038 115.125L190.488 116.535L192.82 115.608L194.473 114.952C194.71 115.657 194.943 116.357 195.172 117.053C195.402 117.75 195.637 118.445 195.877 119.142L187.848 122.548L182.765 108.873L191.433 105.43ZM205.945 110.722L206.617 115.183L198.513 117.887C197.983 115.593 197.463 113.312 196.95 111.042C196.437 108.772 195.933 106.487 195.435 104.185L200.54 102.915C200.747 104.385 200.958 105.852 201.177 107.317C201.395 108.782 201.655 110.247 201.958 111.715C202.27 111.652 202.575 111.582 202.877 111.507C203.177 111.432 203.482 111.357 203.788 111.28C204.155 111.19 204.513 111.097 204.867 111.002C205.22 110.905 205.578 110.813 205.945 110.722ZM218.438 101.185L218.102 105.478C217.903 105.435 217.707 105.408 217.51 105.4C217.313 105.39 217.118 105.39 216.922 105.402C216.423 105.428 215.953 105.52 215.508 105.675C215.065 105.832 214.677 106.053 214.343 106.34C214.012 106.628 213.753 106.98 213.57 107.395C213.387 107.81 213.308 108.29 213.338 108.837C213.357 109.187 213.428 109.487 213.553 109.737C213.678 109.987 213.847 110.19 214.057 110.347C214.268 110.505 214.513 110.615 214.793 110.682C215.073 110.747 215.378 110.772 215.71 110.753C215.958 110.74 216.217 110.698 216.483 110.63C216.75 110.562 217.012 110.477 217.27 110.375C217.528 110.273 217.778 110.16 218.022 110.032C218.265 109.903 218.487 109.773 218.69 109.642L218.542 114.41C218.287 114.56 218.008 114.695 217.708 114.815C217.407 114.937 217.098 115.045 216.778 115.138C216.458 115.233 216.138 115.31 215.818 115.368C215.498 115.427 215.188 115.463 214.893 115.478C214.038 115.525 213.232 115.408 212.473 115.132C211.715 114.855 211.05 114.455 210.475 113.933C209.9 113.41 209.435 112.782 209.082 112.048C208.728 111.315 208.528 110.513 208.482 109.645C208.418 108.493 208.527 107.398 208.8 106.362C209.075 105.323 209.512 104.403 210.11 103.6C210.708 102.798 211.468 102.15 212.39 101.655C213.312 101.16 214.388 100.878 215.622 100.812C216.087 100.787 216.565 100.798 217.057 100.845C217.55 100.892 218.01 101.005 218.438 101.185ZM234.68 111.482C234.53 112.077 234.315 112.633 234.038 113.15C233.762 113.667 233.432 114.135 233.052 114.553C232.672 114.972 232.245 115.335 231.775 115.643C231.303 115.952 230.802 116.192 230.267 116.362C229.733 116.533 229.175 116.63 228.592 116.653C228.008 116.675 227.413 116.61 226.805 116.457C226.217 116.307 225.675 116.09 225.18 115.805C224.687 115.52 224.24 115.183 223.845 114.793C223.45 114.405 223.113 113.972 222.833 113.493C222.555 113.015 222.342 112.51 222.195 111.975C222.048 111.44 221.97 110.887 221.958 110.313C221.947 109.74 222.013 109.163 222.162 108.58C222.307 108.012 222.517 107.472 222.792 106.96C223.067 106.45 223.395 105.985 223.777 105.567C224.157 105.148 224.582 104.783 225.052 104.47C225.52 104.158 226.018 103.912 226.548 103.733C227.077 103.555 227.627 103.45 228.198 103.42C228.77 103.392 229.348 103.45 229.937 103.6C230.885 103.84 231.712 104.207 232.418 104.698C233.125 105.19 233.685 105.778 234.1 106.465C234.515 107.15 234.775 107.92 234.883 108.772C234.988 109.623 234.922 110.527 234.68 111.482ZM230.262 110.632C230.333 110.352 230.362 110.068 230.347 109.782C230.332 109.497 230.272 109.23 230.167 108.985C230.062 108.74 229.91 108.523 229.71 108.338C229.51 108.152 229.26 108.02 228.96 107.945C228.653 107.867 228.363 107.853 228.093 107.903C227.823 107.953 227.577 108.053 227.355 108.202C227.132 108.352 226.943 108.543 226.787 108.778C226.628 109.013 226.513 109.275 226.442 109.562C226.372 109.837 226.342 110.12 226.35 110.415C226.358 110.708 226.413 110.987 226.515 111.25C226.615 111.512 226.765 111.742 226.962 111.937C227.158 112.133 227.41 112.27 227.718 112.348C228.025 112.427 228.318 112.437 228.593 112.377C228.868 112.318 229.117 112.207 229.34 112.045C229.562 111.882 229.753 111.678 229.912 111.433C230.073 111.187 230.188 110.92 230.262 110.632ZM255.76 116.273L246.243 127.71L242.4 125.15L247.055 118.855L241.647 122.72L240.21 121.668L242.252 116.17L238.367 121.448L234.51 118.803L242.925 107.64L247.242 110.547L244.953 117.17L251.367 113.062L255.76 116.273ZM265.442 127.997C264.928 128.37 264.423 128.743 263.923 129.113C263.425 129.485 262.915 129.852 262.393 130.215L259.48 127.06L258.435 127.797L260.363 130.115L257.81 131.948L255.792 129.68L254.592 130.547L256.195 132.475L257.333 133.843C256.737 134.287 256.143 134.725 255.553 135.16C254.963 135.595 254.375 136.033 253.788 136.478L248.058 129.903L259.48 120.827L265.442 127.997Z" fill="white"/>
<path opacity="0.5" d="M280.073 89.7867C288.85 87.2 291.127 127.383 284.107 142.598C284.107 142.6 260.087 95.6767 280.073 89.7867Z" fill="#E4E5F4"/>
<path d="M211.382 202.238C211.718 202.225 202.013 200.782 204.883 197.085C210.048 190.435 209.85 196.947 214.907 194.845C220.232 194.285 218.662 197.932 218.662 197.932C218.662 197.932 220.79 198.135 223.143 201.643C225.497 205.152 222.36 208.413 222.36 208.413C222.36 208.413 225.27 209.122 225.277 212.095C225.285 215.765 216.665 214.387 218.345 218.083C220.025 221.78 218.475 225.932 211.53 220.778C204.585 215.625 214.855 214.115 210.373 212.098C205.892 210.08 208.468 202.35 211.382 202.238Z" fill="#367CFF"/>
<path d="M200.488 229.977C200.96 227.118 204.353 224.542 208.068 224.225C211.783 223.907 214.413 225.967 213.942 228.827C213.47 231.685 210.077 234.262 206.362 234.578C202.647 234.897 200.017 232.837 200.488 229.977Z" fill="#EFF0F9"/>
<path d="M203.973 222.107L203.322 229.977C203.322 229.977 209.828 231.393 212.078 227.978L210.695 220.592L203.973 222.107Z" fill="#EFD9D3"/>
<path opacity="0.5" d="M210.695 220.592C210.287 222.82 203.953 225.825 204.355 227.82C204.558 228.83 205.577 229.438 206.52 229.745C207.145 229.948 207.805 230.043 208.468 230.065C206.082 230.848 203.323 229.977 203.323 229.977L203.975 222.107L210.695 220.592Z" fill="#E5C9C3"/>
<path d="M204.197 222.315C198.36 222.22 197.55 217.893 198.435 213.16C198.567 212.443 198.747 211.717 198.943 210.992C200.358 205.853 203.148 200.922 203.148 200.922C203.148 200.922 212.417 203.137 216.868 206.872C216.868 206.87 217.19 222.532 204.197 222.315Z" fill="#EFD9D3"/>
<path d="M215.185 209.2C215.185 209.2 217.045 207.785 218.095 208.827C219.143 209.868 216.668 215.685 214.782 213.997C212.895 212.308 215.185 209.2 215.185 209.2Z" fill="#EFD9D3"/>
<path d="M215.627 210.123C215.693 210.135 215.763 210.107 215.802 210.047C215.807 210.04 216.295 209.315 216.862 209.282C217.108 209.268 217.335 209.387 217.553 209.643C217.617 209.717 217.727 209.725 217.8 209.663C217.873 209.6 217.883 209.49 217.82 209.417C217.527 209.073 217.198 208.91 216.838 208.932C216.097 208.977 215.532 209.817 215.508 209.853C215.455 209.933 215.477 210.043 215.558 210.097C215.58 210.11 215.603 210.12 215.627 210.123ZM208.017 211.175C208.083 211.187 208.153 211.158 208.192 211.098C208.197 211.092 208.685 210.367 209.252 210.333C209.498 210.32 209.725 210.437 209.945 210.695C210.008 210.768 210.118 210.778 210.192 210.715C210.265 210.652 210.275 210.542 210.212 210.468C209.92 210.125 209.59 209.962 209.23 209.983C208.488 210.028 207.923 210.868 207.9 210.905C207.847 210.985 207.868 211.095 207.95 211.148C207.97 211.162 207.993 211.172 208.017 211.175ZM200.618 210.313C200.685 210.325 200.755 210.297 200.793 210.237C200.798 210.23 201.287 209.505 201.853 209.472C202.1 209.458 202.327 209.575 202.545 209.833C202.608 209.907 202.718 209.917 202.792 209.853C202.865 209.79 202.875 209.68 202.812 209.607C202.52 209.263 202.19 209.1 201.83 209.122C201.088 209.167 200.523 210.007 200.5 210.043C200.447 210.123 200.468 210.233 200.55 210.287C200.572 210.302 200.595 210.31 200.618 210.313ZM211.215 209.46C211.215 209.46 208.063 209.198 207.755 208.877C207.447 208.555 208.457 207.932 209.838 208.33C211.218 208.727 211.577 209.462 211.215 209.46ZM203.02 208.078C203.02 208.078 199.868 207.817 199.56 207.495C199.252 207.173 200.262 206.55 201.643 206.948C203.023 207.343 203.382 208.078 203.02 208.078ZM204.28 212.732C204.338 212.742 204.402 212.722 204.442 212.672C204.503 212.598 204.493 212.488 204.42 212.427C204.075 212.137 204.033 211.992 204.038 211.93C204.05 211.803 204.295 211.663 204.555 211.515C204.713 211.425 204.892 211.322 205.065 211.198C205.885 210.613 206.017 208.688 206.022 208.607C206.028 208.512 205.955 208.427 205.86 208.422C205.765 208.415 205.682 208.488 205.675 208.583C205.642 209.093 205.432 210.508 204.863 210.915C204.705 211.028 204.542 211.122 204.383 211.212C204.028 211.415 203.722 211.59 203.693 211.897C203.672 212.135 203.827 212.378 204.197 212.69C204.222 212.715 204.252 212.727 204.28 212.732Z" fill="#367CFF"/>
<path d="M200.705 215.353C200.645 215.358 200.585 215.382 200.533 215.422C200.39 215.533 200.365 215.738 200.477 215.882C200.507 215.92 201.215 216.813 202.503 216.928C203.602 217.027 204.76 216.537 205.945 215.472C206.08 215.35 206.092 215.143 205.97 215.008C205.848 214.873 205.642 214.862 205.507 214.983C204.462 215.922 203.47 216.357 202.56 216.275C201.552 216.185 200.997 215.487 200.992 215.48C200.923 215.387 200.813 215.343 200.705 215.353Z" fill="#367CFF"/>
<path opacity="0.5" d="M207.7 214.533C207.7 215.298 208.603 215.918 209.717 215.918C210.83 215.918 211.733 215.298 211.733 214.533C211.733 213.768 210.83 213.148 209.717 213.148C208.603 213.148 207.7 213.768 207.7 214.533ZM200.472 212.085C200.472 212.698 199.755 213.198 198.86 213.198C198.708 213.198 198.568 213.188 198.435 213.16C198.567 212.443 198.747 211.717 198.943 210.992C199.802 211.01 200.472 211.492 200.472 212.085Z" fill="#E5C9C3"/>
<path d="M201.663 203.388C201.663 203.388 198.003 202.787 198.86 198.935C199.697 195.177 204.73 194.523 205.355 196.33C200.927 198.957 209.85 198.347 210.9 200.488C211.95 202.632 215.72 202.757 216.67 204.647C217.622 206.537 217.615 208.42 216.798 208.423C215.982 208.428 214.387 211.592 213.503 209.527C212.622 207.462 213.847 203.428 210.252 205.235C206.658 207.043 207.215 201.315 201.663 203.388Z" fill="#367CFF"/>
<path d="M257.017 203.138C257.923 205.248 265.503 213.063 266.703 212.262C267.903 211.462 272.213 206.41 271.265 204.498C270.317 202.587 263.102 196.175 261.42 196.895C259.742 197.617 257.017 203.138 257.017 203.138ZM154.133 204.58C154.507 203.647 157.495 200.247 160.617 201.087C163.738 201.927 163.328 204.58 163.328 204.58C163.328 204.58 157.255 208.835 155.813 209.982C154.372 211.128 153.538 206.067 154.133 204.58Z" fill="#E4E5F4"/>
<path d="M279.828 180.22C280.383 180.672 281.938 180.013 281.938 180.013C281.938 180.013 279.838 181.222 280.402 181.8C280.857 182.267 282.133 181.678 282.612 181.433C282.075 181.733 280.615 182.667 281.552 183.465C282.127 183.955 283.922 183.01 283.922 183.01C283.922 183.01 281.802 184.655 282.503 185.145C283.295 185.697 289.653 184.205 287.963 181.775C287.387 180.945 286.96 178.542 286.497 178.065C286.035 177.588 285.668 177.028 284.725 176.938C283.973 176.868 282.632 177.57 282.115 177.86C282.107 177.85 282.102 177.843 282.102 177.843C282.102 177.843 282.025 177.895 281.902 177.983C281.268 178.432 279.363 179.842 279.828 180.22Z" fill="#EFD9D3"/>
<path opacity="0.5" d="M284.133 184.642L283.398 183.71C283.398 183.71 282.522 184.35 282.72 184.78C282.918 185.212 284.133 184.642 284.133 184.642ZM282.838 183.09C282.838 183.09 282.495 182.098 282.213 182.14C281.932 182.18 281.345 182.68 281.542 183.102C281.74 183.523 282.772 183.202 282.838 183.09ZM281.378 181.683C281.378 181.683 281.335 181.123 280.982 180.977C280.982 180.977 280.333 181.287 280.513 181.62C280.693 181.952 281.378 181.683 281.378 181.683ZM280.615 180.142C280.615 180.142 280.575 179.685 280.297 179.628C280.297 179.628 279.912 179.732 279.96 180.077C280.007 180.423 280.615 180.142 280.615 180.142Z" fill="white"/>
<path d="M152.155 185.665C151.555 186.057 150.078 185.242 150.078 185.242C150.078 185.242 152.043 186.662 151.423 187.178C150.923 187.595 149.715 186.878 149.263 186.585C149.765 186.938 151.122 188.018 150.108 188.715C149.487 189.143 147.798 188.018 147.798 188.018C147.798 188.018 149.738 189.873 148.988 190.288C148.145 190.755 141.973 188.615 143.907 186.373C144.567 185.607 145.238 183.26 145.748 182.833C146.257 182.407 146.68 181.887 147.627 181.897C148.382 181.903 149.643 182.74 150.128 183.082C150.137 183.072 150.143 183.067 150.143 183.067C150.143 183.067 150.213 183.127 150.327 183.227C150.908 183.738 152.658 185.337 152.155 185.665Z" fill="#EFD9D3"/>
<path opacity="0.5" d="M147.418 189.62L148.245 188.77C148.245 188.77 149.052 189.497 148.81 189.905C148.568 190.312 147.418 189.62 147.418 189.62ZM148.865 188.21C148.865 188.21 149.31 187.26 149.585 187.328C149.862 187.398 150.393 187.955 150.153 188.353C149.915 188.753 148.922 188.327 148.865 188.21ZM150.463 186.962C150.463 186.962 150.565 186.408 150.93 186.298C150.93 186.298 151.543 186.673 151.33 186.987C151.118 187.298 150.463 186.962 150.463 186.962ZM151.382 185.507C151.382 185.507 151.468 185.057 151.75 185.028C151.75 185.028 152.122 185.17 152.04 185.51C151.958 185.85 151.382 185.507 151.382 185.507Z" fill="white"/>
<path d="M279.44 156.398C279.44 156.398 278.83 173.008 280.93 175.788C283.032 178.568 281.212 161.28 279.44 156.398ZM271.827 153.348C271.827 153.348 274.308 161.12 275.828 167.843C277.348 174.567 280.615 177.528 280.615 177.528C280.615 177.528 276.815 174.407 274.362 167.603C271.907 160.8 271.827 153.348 271.827 153.348ZM150.207 148.44C150.207 148.44 144.802 166.9 149.23 180.975C149.23 180.977 138.255 166.818 150.207 148.44ZM153.957 157.885C153.957 157.885 151.403 175.845 149.902 179.137C149.902 179.137 154.78 167.857 153.957 157.885Z" fill="#0038FF"/>
<g opacity="0.35">
<path opacity="0.35" d="M268.268 264.133L262.193 271.302H274.343L268.268 264.133Z" fill="#E4E5F4"/>
<path opacity="0.35" d="M268.268 254.345L262.193 261.512H274.343L268.268 254.345Z" fill="#E4E5F4"/>
<path opacity="0.35" d="M268.268 244.555L262.193 251.723H274.343L268.268 244.555Z" fill="#E4E5F4"/>
</g>
</svg>
